<svg xmlns="http://www.w3.org/2000/svg" fill="none" viewBox="-0.5 -0.5 24 24" height="24" width="24" id="Clinical-Notes--Streamline-Outlined----Material-Symbols">
  <path fill="#000" d="M16.291666666666668 15.09375C15.493039583333335 15.09375 14.814252083333333 14.814252083333333 14.255208333333334 14.255208333333334C13.696164583333335 13.696164583333335 13.416666666666668 13.017377083333333 13.416666666666668 12.21875C13.416666666666668 11.420122916666667 13.696164583333335 10.741335416666667 14.255208333333334 10.182291666666668C14.814252083333333 9.623247916666667 15.493039583333335 9.34375 16.291666666666668 9.34375C17.09029375 9.34375 17.769081250000003 9.623247916666667 18.328125 10.182291666666668C18.88716875 10.741335416666667 19.166666666666668 11.420122916666667 19.166666666666668 12.21875C19.166666666666668 13.017377083333333 18.88716875 13.696164583333335 18.328125 14.255208333333334C17.769081250000003 14.814252083333333 17.09029375 15.09375 16.291666666666668 15.09375ZM16.291666666666668 13.65625C16.698958333333334 13.65625 17.040364583333336 13.518489583333333 17.315885416666667 13.24296875C17.59140625 12.967447916666668 17.729166666666668 12.626041666666667 17.729166666666668 12.21875C17.729166666666668 11.811458333333333 17.59140625 11.470052083333334 17.315885416666667 11.19453125C17.040364583333336 10.919010416666667 16.698958333333334 10.78125 16.291666666666668 10.78125C15.884375 10.78125 15.54296875 10.919010416666667 15.267447916666667 11.19453125C14.991927083333335 11.470052083333334 14.854166666666668 11.811458333333333 14.854166666666668 12.21875C14.854166666666668 12.626041666666667 14.991927083333335 12.967447916666668 15.267447916666667 13.24296875C15.54296875 13.518489583333333 15.884375 13.65625 16.291666666666668 13.65625ZM10.541666666666668 21.802083333333336V19.022916666666667C10.541666666666668 18.6875 10.621543749999999 18.372064583333337 10.78125 18.0765625C10.940956250000001 17.781060416666666 11.164583333333335 17.545502083333336 11.452083333333333 17.369791666666668C11.899289583333335 17.09824791666667 12.3625 16.86268958333333 12.841666666666667 16.663020833333334C13.320833333333335 16.463352083333334 13.815956250000001 16.299668750000002 14.327083333333333 16.171875L16.291666666666668 18.711458333333333L18.25625 16.171875C18.767377083333333 16.299668750000002 19.258522916666667 16.463352083333334 19.7296875 16.663020833333334C20.200852083333334 16.86268958333333 20.660085416666668 17.09824791666667 21.107291666666665 17.369791666666668C21.394791666666666 17.545502083333336 21.622395833333336 17.781060416666666 21.79010416666667 18.0765625C21.957812500000003 18.372064583333337 22.041666666666668 18.6875 22.041666666666668 19.022916666666667V21.802083333333336H10.541666666666668ZM11.979166666666668 20.364583333333336H15.740625000000001L13.776041666666668 17.825000000000003C13.456581250000001 17.95279375 13.145122916666667 18.09251875 12.841666666666667 18.244270833333335C12.538210416666667 18.396022916666666 12.250710416666667 18.55970625 11.979166666666668 18.73541666666667V20.364583333333336ZM16.842708333333334 20.364583333333336H20.604166666666668V18.73541666666667C20.33262291666667 18.55970625 20.04914791666667 18.396022916666666 19.753645833333334 18.244270833333335C19.45814375 18.09251875 19.15071041666667 17.95279375 18.83125 17.825000000000003L16.842708333333334 20.364583333333336ZM4.3125 20.125C3.9171875000000007 20.125 3.578814375 19.984220833333335 3.2973854166666667 19.702614583333332C3.0157935416666666 19.4212 2.875 19.082812500000003 2.875 18.6875V4.3125C2.875 3.9171875000000007 3.0157935416666666 3.5787377083333336 3.2973854166666667 3.2971458333333334C3.578814375 3.015716875 3.9171875000000007 2.875 4.3125 2.875H18.6875C19.082812500000003 2.875 19.42124791666667 3.015716875 19.70285416666667 3.2971458333333334C19.984268750000002 3.5787377083333336 20.125 3.9171875000000007 20.125 4.3125V10.230208333333334C19.949289583333332 9.910747916666667 19.741666666666667 9.615293750000001 19.502083333333335 9.34375C19.262500000000003 9.07220625 18.99095625 8.832622916666667 18.6875 8.625V4.3125H4.3125V18.6875H9.104166666666668V20.125H4.3125ZM6.708333333333334 8.145833333333334H14.878125C15.101752083333334 8.065956250000001 15.332039583333334 8.006060416666667 15.569083333333333 7.966145833333334C15.806127083333333 7.92623125 16.04695625 7.90625 16.291666666666668 7.90625V6.708333333333334H6.708333333333334V8.145833333333334ZM6.708333333333334 12.21875H11.979166666666668C11.979166666666668 11.979166666666668 11.999147916666667 11.735606250000002 12.0390625 11.488020833333334C12.078977083333335 11.240435416666667 12.138872916666667 11.004877083333334 12.21875 10.78125H6.708333333333334V12.21875ZM6.708333333333334 16.291666666666668H10.49375C10.76529375 16.08404375 11.052793750000001 15.912310416666667 11.35625 15.776562499999999C11.659706250000001 15.640814583333334 11.971164583333334 15.509043750000002 12.290625 15.381250000000001V14.854166666666668H6.708333333333334V16.291666666666668ZM4.3125 18.6875V4.3125V8.625V7.90625V18.6875Z" stroke-width="1"></path>
</svg>